<svg xmlns="http://www.w3.org/2000/svg" width="900" height="532" viewBox="0 0 900 532">
<style>text { font-family: Menlo, Consolas, monospace; fill: #1f2937; } .title { font-size: 24px; font-weight: 700; } .label { font-size: 13px; } .value { font-size: 12px; } .bar { fill: #2f6fed; } .axis { stroke: #d1d5db; stroke-width: 1; }</style>
<text x="24" y="32" class="title">Overall Writing Score</text>
<text x="220" y="32" class="label">Score</text>
<line x1="220" y1="48" x2="860" y2="48" class="axis" />
<text x="24" y="78" class="label">google/gemini-3.1-pro-preview</text>
<rect x="220" y="60" width="629.34" height="20" rx="4" class="bar" />
<text x="857.34" y="75" class="value">4.917</text>
<text x="24" y="114" class="label">google/gemini-3.1-flash-lite-preview</text>
<rect x="220" y="96" width="595.20" height="20" rx="4" class="bar" />
<text x="823.20" y="111" class="value">4.650</text>
<text x="24" y="150" class="label">openai/gpt-5.3-chat</text>
<rect x="220" y="132" width="550.40" height="20" rx="4" class="bar" />
<text x="778.40" y="147" class="value">4.300</text>
<text x="24" y="186" class="label">moonshotai/kimi-k2.5</text>
<rect x="220" y="168" width="545.69" height="20" rx="4" class="bar" />
<text x="773.69" y="183" class="value">4.263</text>
<text x="24" y="222" class="label">z-ai/glm-5</text>
<rect x="220" y="204" width="536.70" height="20" rx="4" class="bar" />
<text x="764.70" y="219" class="value">4.193</text>
<text x="24" y="258" class="label">anthropic/claude-opus-4.6</text>
<rect x="220" y="240" width="505.60" height="20" rx="4" class="bar" />
<text x="733.60" y="255" class="value">3.950</text>
<text x="24" y="294" class="label">anthropic/claude-sonnet-4.6</text>
<rect x="220" y="276" width="497.06" height="20" rx="4" class="bar" />
<text x="725.06" y="291" class="value">3.883</text>
<text x="24" y="330" class="label">x-ai/grok-4.1-fast</text>
<rect x="220" y="312" width="494.94" height="20" rx="4" class="bar" />
<text x="722.94" y="327" class="value">3.867</text>
<text x="24" y="366" class="label">deepseek/deepseek-v3.2</text>
<rect x="220" y="348" width="486.40" height="20" rx="4" class="bar" />
<text x="714.40" y="363" class="value">3.800</text>
<text x="24" y="402" class="label">openai/gpt-5.4</text>
<rect x="220" y="384" width="486.40" height="20" rx="4" class="bar" />
<text x="714.40" y="399" class="value">3.800</text>
<text x="24" y="438" class="label">minimax/minimax-m2.5</text>
<rect x="220" y="420" width="476.07" height="20" rx="4" class="bar" />
<text x="704.07" y="435" class="value">3.719</text>
<text x="24" y="474" class="label">qwen/qwen3.5-35b-a3b</text>
<rect x="220" y="456" width="324.26" height="20" rx="4" class="bar" />
<text x="552.26" y="471" class="value">2.533</text>
</svg>