<svg xmlns="http://www.w3.org/2000/svg" width="900" height="532" viewBox="0 0 900 532">
<style>text { font-family: Menlo, Consolas, monospace; fill: #1f2937; } .title { font-size: 24px; font-weight: 700; } .label { font-size: 13px; } .value { font-size: 12px; } .bar { fill: #2f6fed; } .axis { stroke: #d1d5db; stroke-width: 1; }</style>
<text x="24" y="32" class="title">Judge Quality</text>
<text x="220" y="32" class="label">Agreement</text>
<line x1="220" y1="48" x2="860" y2="48" class="axis" />
<text x="24" y="78" class="label">google/gemini-3.1-flash-lite-preview</text>
<rect x="220" y="60" width="293.12" height="20" rx="4" class="bar" />
<text x="521.12" y="75" class="value">0.458</text>
<text x="24" y="114" class="label">anthropic/claude-opus-4.6</text>
<rect x="220" y="96" width="290.30" height="20" rx="4" class="bar" />
<text x="518.30" y="111" class="value">0.454</text>
<text x="24" y="150" class="label">anthropic/claude-sonnet-4.6</text>
<rect x="220" y="132" width="287.94" height="20" rx="4" class="bar" />
<text x="515.94" y="147" class="value">0.450</text>
<text x="24" y="186" class="label">z-ai/glm-5</text>
<rect x="220" y="168" width="285.89" height="20" rx="4" class="bar" />
<text x="513.89" y="183" class="value">0.447</text>
<text x="24" y="222" class="label">openai/gpt-5.4</text>
<rect x="220" y="204" width="281.86" height="20" rx="4" class="bar" />
<text x="509.86" y="219" class="value">0.440</text>
<text x="24" y="258" class="label">minimax/minimax-m2.5</text>
<rect x="220" y="240" width="281.54" height="20" rx="4" class="bar" />
<text x="509.54" y="255" class="value">0.440</text>
<text x="24" y="294" class="label">openai/gpt-5.3-chat</text>
<rect x="220" y="276" width="281.41" height="20" rx="4" class="bar" />
<text x="509.41" y="291" class="value">0.440</text>
<text x="24" y="330" class="label">google/gemini-3.1-pro-preview</text>
<rect x="220" y="312" width="281.22" height="20" rx="4" class="bar" />
<text x="509.22" y="327" class="value">0.439</text>
<text x="24" y="366" class="label">moonshotai/kimi-k2.5</text>
<rect x="220" y="348" width="279.55" height="20" rx="4" class="bar" />
<text x="507.55" y="363" class="value">0.437</text>
<text x="24" y="402" class="label">deepseek/deepseek-v3.2</text>
<rect x="220" y="384" width="279.36" height="20" rx="4" class="bar" />
<text x="507.36" y="399" class="value">0.436</text>
<text x="24" y="438" class="label">x-ai/grok-4.1-fast</text>
<rect x="220" y="420" width="276.74" height="20" rx="4" class="bar" />
<text x="504.74" y="435" class="value">0.432</text>
<text x="24" y="474" class="label">qwen/qwen3.5-35b-a3b</text>
<rect x="220" y="456" width="271.62" height="20" rx="4" class="bar" />
<text x="499.62" y="471" class="value">0.424</text>
</svg>