<svg xmlns="http://www.w3.org/2000/svg" width="900" height="532" viewBox="0 0 900 532">
<style>text { font-family: Menlo, Consolas, monospace; fill: #1f2937; } .title { font-size: 24px; font-weight: 700; } .label { font-size: 13px; } .value { font-size: 12px; } .bar { fill: #2f6fed; } .axis { stroke: #d1d5db; stroke-width: 1; }</style>
<text x="24" y="32" class="title">Overall Writing Score</text>
<text x="220" y="32" class="label">Score</text>
<line x1="220" y1="48" x2="860" y2="48" class="axis" />
<text x="24" y="78" class="label">deepseek/deepseek-v3.2</text>
<rect x="220" y="60" width="389.86" height="20" rx="4" class="bar" />
<text x="617.86" y="75" class="value">3.046</text>
<text x="24" y="114" class="label">google/gemini-3.1-pro-preview</text>
<rect x="220" y="96" width="389.34" height="20" rx="4" class="bar" />
<text x="617.34" y="111" class="value">3.042</text>
<text x="24" y="150" class="label">openai/gpt-5.4</text>
<rect x="220" y="132" width="387.20" height="20" rx="4" class="bar" />
<text x="615.20" y="147" class="value">3.025</text>
<text x="24" y="186" class="label">x-ai/grok-4.1-fast</text>
<rect x="220" y="168" width="386.66" height="20" rx="4" class="bar" />
<text x="614.66" y="183" class="value">3.021</text>
<text x="24" y="222" class="label">anthropic/claude-opus-4.6</text>
<rect x="220" y="204" width="384.54" height="20" rx="4" class="bar" />
<text x="612.54" y="219" class="value">3.004</text>
<text x="24" y="258" class="label">anthropic/claude-sonnet-4.6</text>
<rect x="220" y="240" width="382.94" height="20" rx="4" class="bar" />
<text x="610.94" y="255" class="value">2.992</text>
<text x="24" y="294" class="label">moonshotai/kimi-k2.5</text>
<rect x="220" y="276" width="382.40" height="20" rx="4" class="bar" />
<text x="610.40" y="291" class="value">2.987</text>
<text x="24" y="330" class="label">qwen/qwen3.5-35b-a3b</text>
<rect x="220" y="312" width="376.54" height="20" rx="4" class="bar" />
<text x="604.54" y="327" class="value">2.942</text>
<text x="24" y="366" class="label">openai/gpt-5.3-chat</text>
<rect x="220" y="348" width="371.20" height="20" rx="4" class="bar" />
<text x="599.20" y="363" class="value">2.900</text>
<text x="24" y="402" class="label">google/gemini-3.1-flash-lite-preview</text>
<rect x="220" y="384" width="370.66" height="20" rx="4" class="bar" />
<text x="598.66" y="399" class="value">2.896</text>
<text x="24" y="438" class="label">minimax/minimax-m2.5</text>
<rect x="220" y="420" width="366.94" height="20" rx="4" class="bar" />
<text x="594.94" y="435" class="value">2.867</text>
<text x="24" y="474" class="label">z-ai/glm-5</text>
<rect x="220" y="456" width="364.26" height="20" rx="4" class="bar" />
<text x="592.26" y="471" class="value">2.846</text>
</svg>