<svg xmlns="http://www.w3.org/2000/svg" width="900" height="460" viewBox="0 0 900 460">
<style>text { font-family: Menlo, Consolas, monospace; fill: #1f2937; } .title { font-size: 24px; font-weight: 700; } .subtitle { font-size: 12px; fill: #6b7280; } .label { font-size: 13px; } .value { font-size: 12px; } .bar { fill: #2f6fed; } .axis { stroke: #d1d5db; stroke-width: 1; }</style>
<text x="24" y="32" class="title">Overall Writing Score</text>
<text x="24" y="48" class="subtitle">Gemini candidate models excluded from this chart due OpenRouter truncation in this run</text>
<text x="220" y="32" class="label">Score</text>
<line x1="220" y1="48" x2="860" y2="48" class="axis" />
<text x="24" y="78" class="label">openai/gpt-5.3-chat</text>
<rect x="220" y="60" width="535.46" height="20" rx="4" class="bar" />
<text x="763.46" y="75" class="value">4.183</text>
<text x="24" y="114" class="label">z-ai/glm-5</text>
<rect x="220" y="96" width="518.40" height="20" rx="4" class="bar" />
<text x="746.40" y="111" class="value">4.050</text>
<text x="24" y="150" class="label">anthropic/claude-opus-4.6</text>
<rect x="220" y="132" width="515.20" height="20" rx="4" class="bar" />
<text x="743.20" y="147" class="value">4.025</text>
<text x="24" y="186" class="label">anthropic/claude-sonnet-4.6</text>
<rect x="220" y="168" width="490.66" height="20" rx="4" class="bar" />
<text x="718.66" y="183" class="value">3.833</text>
<text x="24" y="222" class="label">x-ai/grok-4.1-fast</text>
<rect x="220" y="204" width="485.34" height="20" rx="4" class="bar" />
<text x="713.34" y="219" class="value">3.792</text>
<text x="24" y="258" class="label">deepseek/deepseek-v3.2</text>
<rect x="220" y="240" width="473.60" height="20" rx="4" class="bar" />
<text x="701.60" y="255" class="value">3.700</text>
<text x="24" y="294" class="label">minimax/minimax-m2.5</text>
<rect x="220" y="276" width="450.14" height="20" rx="4" class="bar" />
<text x="678.14" y="291" class="value">3.517</text>
<text x="24" y="330" class="label">openai/gpt-5.4</text>
<rect x="220" y="312" width="450.14" height="20" rx="4" class="bar" />
<text x="678.14" y="327" class="value">3.517</text>
<text x="24" y="366" class="label">moonshotai/kimi-k2.5</text>
<rect x="220" y="348" width="396.80" height="20" rx="4" class="bar" />
<text x="624.80" y="363" class="value">3.100</text>
<text x="24" y="402" class="label">qwen/qwen3.5-35b-a3b</text>
<rect x="220" y="384" width="324.26" height="20" rx="4" class="bar" />
<text x="552.26" y="399" class="value">2.533</text>
</svg>