<svg xmlns="http://www.w3.org/2000/svg" width="900" height="486" viewBox="0 0 900 486">
<style>text { font-family: Menlo, Consolas, monospace; fill: #1f2937; } .title { font-size: 24px; font-weight: 700; } .subtitle { font-size: 12px; fill: #6b7280; } .label { font-size: 13px; } .axislabel { font-size: 13px; fill: #4b5563; } .value { font-size: 12px; } .bar { fill: #2f6fed; } .axis { stroke: #d1d5db; stroke-width: 1; }</style>
<text x="24" y="32" class="title">Overall Nonfiction Writing Score</text>
<text x="24" y="50" class="subtitle">Gemini candidate models excluded from this chart due to OpenRouter truncation in this run</text>
<text x="220" y="72" class="axislabel">Score</text>
<line x1="220" y1="86" x2="860" y2="86" class="axis" />
<text x="24" y="116" class="label">openai/gpt-5.3-chat</text>
<rect x="220" y="98" width="535.46" height="20" rx="4" class="bar" />
<text x="763.46" y="113" class="value">4.183</text>
<text x="24" y="152" class="label">z-ai/glm-5</text>
<rect x="220" y="134" width="518.40" height="20" rx="4" class="bar" />
<text x="746.40" y="149" class="value">4.050</text>
<text x="24" y="188" class="label">anthropic/claude-opus-4.6</text>
<rect x="220" y="170" width="515.20" height="20" rx="4" class="bar" />
<text x="743.20" y="185" class="value">4.025</text>
<text x="24" y="224" class="label">anthropic/claude-sonnet-4.6</text>
<rect x="220" y="206" width="490.66" height="20" rx="4" class="bar" />
<text x="718.66" y="221" class="value">3.833</text>
<text x="24" y="260" class="label">x-ai/grok-4.1-fast</text>
<rect x="220" y="242" width="485.34" height="20" rx="4" class="bar" />
<text x="713.34" y="257" class="value">3.792</text>
<text x="24" y="296" class="label">deepseek/deepseek-v3.2</text>
<rect x="220" y="278" width="473.60" height="20" rx="4" class="bar" />
<text x="701.60" y="293" class="value">3.700</text>
<text x="24" y="332" class="label">minimax/minimax-m2.5</text>
<rect x="220" y="314" width="450.14" height="20" rx="4" class="bar" />
<text x="678.14" y="329" class="value">3.517</text>
<text x="24" y="368" class="label">openai/gpt-5.4</text>
<rect x="220" y="350" width="450.14" height="20" rx="4" class="bar" />
<text x="678.14" y="365" class="value">3.517</text>
<text x="24" y="404" class="label">moonshotai/kimi-k2.5</text>
<rect x="220" y="386" width="396.80" height="20" rx="4" class="bar" />
<text x="624.80" y="401" class="value">3.100</text>
<text x="24" y="440" class="label">qwen/qwen3.5-35b-a3b</text>
<rect x="220" y="422" width="324.26" height="20" rx="4" class="bar" />
<text x="552.26" y="437" class="value">2.533</text>
</svg>
