<svg xmlns="http://www.w3.org/2000/svg" width="1040" height="550" viewBox="0 0 1040 550">
<style>text { font-family: Menlo, Consolas, monospace; fill: #1f2937; } .title { font-size: 24px; font-weight: 700; } .label { font-size: 12px; } .value { font-size: 12px; font-weight: 700; } .source { font-size: 12px; fill: #4b5563; } .axis { stroke: #d1d5db; stroke-width: 1; }</style>
<text x="24" y="32" class="title">Model Strengths by Rubric Axis</text>
<text x="352" y="64" class="label">Clarity</text>
<text x="452" y="64" class="label">Simplicity</text>
<text x="552" y="64" class="label">Brevity</text>
<text x="652" y="64" class="label">Structure</text>
<text x="752" y="64" class="label">Specificity</text>
<text x="852" y="64" class="label">Voice</text>
<text x="24" y="104" class="label">anthropic/claude-sonnet-4.6</text>
<rect x="344" y="86" width="92" height="22" rx="4" fill="rgb(96,185,99)" />
<text x="374" y="101" class="value" fill="#f9fafb">5.00</text>
<rect x="444" y="86" width="92" height="22" rx="4" fill="rgb(130,144,82)" />
<text x="474" y="101" class="value" fill="#f9fafb">4.58</text>
<rect x="544" y="86" width="92" height="22" rx="4" fill="rgb(138,134,77)" />
<text x="574" y="101" class="value" fill="#111827">4.48</text>
<rect x="644" y="86" width="92" height="22" rx="4" fill="rgb(96,185,99)" />
<text x="674" y="101" class="value" fill="#f9fafb">5.00</text>
<rect x="744" y="86" width="92" height="22" rx="4" fill="rgb(100,180,96)" />
<text x="774" y="101" class="value" fill="#f9fafb">4.95</text>
<rect x="844" y="86" width="92" height="22" rx="4" fill="rgb(108,170,92)" />
<text x="874" y="101" class="value" fill="#f9fafb">4.85</text>
<text x="24" y="138" class="label">anthropic/claude-opus-4.6</text>
<rect x="344" y="120" width="92" height="22" rx="4" fill="rgb(96,185,99)" />
<text x="374" y="135" class="value" fill="#f9fafb">5.00</text>
<rect x="444" y="120" width="92" height="22" rx="4" fill="rgb(126,149,84)" />
<text x="474" y="135" class="value" fill="#f9fafb">4.63</text>
<rect x="544" y="120" width="92" height="22" rx="4" fill="rgb(155,114,69)" />
<text x="574" y="135" class="value" fill="#111827">4.28</text>
<rect x="644" y="120" width="92" height="22" rx="4" fill="rgb(96,185,99)" />
<text x="674" y="135" class="value" fill="#f9fafb">5.00</text>
<rect x="744" y="120" width="92" height="22" rx="4" fill="rgb(101,178,96)" />
<text x="774" y="135" class="value" fill="#f9fafb">4.93</text>
<rect x="844" y="120" width="92" height="22" rx="4" fill="rgb(107,171,93)" />
<text x="874" y="135" class="value" fill="#f9fafb">4.87</text>
<text x="24" y="172" class="label">openai/gpt-5.3-chat</text>
<rect x="344" y="154" width="92" height="22" rx="4" fill="rgb(96,185,99)" />
<text x="374" y="169" class="value" fill="#f9fafb">5.00</text>
<rect x="444" y="154" width="92" height="22" rx="4" fill="rgb(97,183,98)" />
<text x="474" y="169" class="value" fill="#f9fafb">4.98</text>
<rect x="544" y="154" width="92" height="22" rx="4" fill="rgb(116,160,88)" />
<text x="574" y="169" class="value" fill="#f9fafb">4.75</text>
<rect x="644" y="154" width="92" height="22" rx="4" fill="rgb(97,183,98)" />
<text x="674" y="169" class="value" fill="#f9fafb">4.98</text>
<rect x="744" y="154" width="92" height="22" rx="4" fill="rgb(137,136,78)" />
<text x="774" y="169" class="value" fill="#111827">4.50</text>
<rect x="844" y="154" width="92" height="22" rx="4" fill="rgb(137,136,78)" />
<text x="874" y="169" class="value" fill="#111827">4.50</text>
<text x="24" y="206" class="label">moonshotai/kimi-k2.5</text>
<rect x="344" y="188" width="92" height="22" rx="4" fill="rgb(97,183,98)" />
<text x="374" y="203" class="value" fill="#f9fafb">4.99</text>
<rect x="444" y="188" width="92" height="22" rx="4" fill="rgb(139,133,77)" />
<text x="474" y="203" class="value" fill="#111827">4.47</text>
<rect x="544" y="188" width="92" height="22" rx="4" fill="rgb(140,132,77)" />
<text x="574" y="203" class="value" fill="#111827">4.46</text>
<rect x="644" y="188" width="92" height="22" rx="4" fill="rgb(97,183,98)" />
<text x="674" y="203" class="value" fill="#f9fafb">4.99</text>
<rect x="744" y="188" width="92" height="22" rx="4" fill="rgb(101,178,96)" />
<text x="774" y="203" class="value" fill="#f9fafb">4.94</text>
<rect x="844" y="188" width="92" height="22" rx="4" fill="rgb(113,164,90)" />
<text x="874" y="203" class="value" fill="#f9fafb">4.79</text>
<text x="24" y="240" class="label">openai/gpt-5.4</text>
<rect x="344" y="222" width="92" height="22" rx="4" fill="rgb(96,185,99)" />
<text x="374" y="237" class="value" fill="#f9fafb">5.00</text>
<rect x="444" y="222" width="92" height="22" rx="4" fill="rgb(111,167,91)" />
<text x="474" y="237" class="value" fill="#f9fafb">4.82</text>
<rect x="544" y="222" width="92" height="22" rx="4" fill="rgb(178,87,58)" />
<text x="574" y="237" class="value" fill="#111827">4.00</text>
<rect x="644" y="222" width="92" height="22" rx="4" fill="rgb(96,185,99)" />
<text x="674" y="237" class="value" fill="#f9fafb">5.00</text>
<rect x="744" y="222" width="92" height="22" rx="4" fill="rgb(122,153,86)" />
<text x="774" y="237" class="value" fill="#f9fafb">4.68</text>
<rect x="844" y="222" width="92" height="22" rx="4" fill="rgb(123,152,85)" />
<text x="874" y="237" class="value" fill="#f9fafb">4.67</text>
<text x="24" y="274" class="label">google/gemini-3.1-pro-preview</text>
<rect x="344" y="256" width="92" height="22" rx="4" fill="rgb(96,185,99)" />
<text x="374" y="271" class="value" fill="#f9fafb">5.00</text>
<rect x="444" y="256" width="92" height="22" rx="4" fill="rgb(145,126,74)" />
<text x="474" y="271" class="value" fill="#111827">4.40</text>
<rect x="544" y="256" width="92" height="22" rx="4" fill="rgb(156,113,69)" />
<text x="574" y="271" class="value" fill="#111827">4.27</text>
<rect x="644" y="256" width="92" height="22" rx="4" fill="rgb(96,185,99)" />
<text x="674" y="271" class="value" fill="#f9fafb">5.00</text>
<rect x="744" y="256" width="92" height="22" rx="4" fill="rgb(120,155,86)" />
<text x="774" y="271" class="value" fill="#f9fafb">4.70</text>
<rect x="844" y="256" width="92" height="22" rx="4" fill="rgb(120,155,86)" />
<text x="874" y="271" class="value" fill="#f9fafb">4.70</text>
<text x="24" y="308" class="label">z-ai/glm-5</text>
<rect x="344" y="290" width="92" height="22" rx="4" fill="rgb(96,185,99)" />
<text x="374" y="305" class="value" fill="#f9fafb">5.00</text>
<rect x="444" y="290" width="92" height="22" rx="4" fill="rgb(148,122,73)" />
<text x="474" y="305" class="value" fill="#111827">4.37</text>
<rect x="544" y="290" width="92" height="22" rx="4" fill="rgb(151,119,71)" />
<text x="574" y="305" class="value" fill="#111827">4.33</text>
<rect x="644" y="290" width="92" height="22" rx="4" fill="rgb(96,185,99)" />
<text x="674" y="305" class="value" fill="#f9fafb">5.00</text>
<rect x="744" y="290" width="92" height="22" rx="4" fill="rgb(118,158,88)" />
<text x="774" y="305" class="value" fill="#f9fafb">4.73</text>
<rect x="844" y="290" width="92" height="22" rx="4" fill="rgb(137,136,78)" />
<text x="874" y="305" class="value" fill="#111827">4.50</text>
<text x="24" y="342" class="label">deepseek/deepseek-v3.2</text>
<rect x="344" y="324" width="92" height="22" rx="4" fill="rgb(96,185,99)" />
<text x="374" y="339" class="value" fill="#f9fafb">5.00</text>
<rect x="444" y="324" width="92" height="22" rx="4" fill="rgb(158,111,68)" />
<text x="474" y="339" class="value" fill="#111827">4.25</text>
<rect x="544" y="324" width="92" height="22" rx="4" fill="rgb(149,121,72)" />
<text x="574" y="339" class="value" fill="#111827">4.35</text>
<rect x="644" y="324" width="92" height="22" rx="4" fill="rgb(96,185,99)" />
<text x="674" y="339" class="value" fill="#f9fafb">5.00</text>
<rect x="744" y="324" width="92" height="22" rx="4" fill="rgb(128,147,83)" />
<text x="774" y="339" class="value" fill="#f9fafb">4.61</text>
<rect x="844" y="324" width="92" height="22" rx="4" fill="rgb(132,142,81)" />
<text x="874" y="339" class="value" fill="#111827">4.56</text>
<text x="24" y="376" class="label">minimax/minimax-m2.5</text>
<rect x="344" y="358" width="92" height="22" rx="4" fill="rgb(97,183,98)" />
<text x="374" y="373" class="value" fill="#f9fafb">4.99</text>
<rect x="444" y="358" width="92" height="22" rx="4" fill="rgb(129,145,82)" />
<text x="474" y="373" class="value" fill="#f9fafb">4.60</text>
<rect x="544" y="358" width="92" height="22" rx="4" fill="rgb(162,106,66)" />
<text x="574" y="373" class="value" fill="#111827">4.20</text>
<rect x="644" y="358" width="92" height="22" rx="4" fill="rgb(97,183,98)" />
<text x="674" y="373" class="value" fill="#f9fafb">4.99</text>
<rect x="744" y="358" width="92" height="22" rx="4" fill="rgb(145,126,74)" />
<text x="774" y="373" class="value" fill="#111827">4.40</text>
<rect x="844" y="358" width="92" height="22" rx="4" fill="rgb(133,140,80)" />
<text x="874" y="373" class="value" fill="#111827">4.55</text>
<text x="24" y="410" class="label">x-ai/grok-4.1-fast</text>
<rect x="344" y="392" width="92" height="22" rx="4" fill="rgb(99,181,97)" />
<text x="374" y="407" class="value" fill="#f9fafb">4.96</text>
<rect x="444" y="392" width="92" height="22" rx="4" fill="rgb(164,104,65)" />
<text x="474" y="407" class="value" fill="#111827">4.17</text>
<rect x="544" y="392" width="92" height="22" rx="4" fill="rgb(168,99,63)" />
<text x="574" y="407" class="value" fill="#111827">4.12</text>
<rect x="644" y="392" width="92" height="22" rx="4" fill="rgb(97,183,98)" />
<text x="674" y="407" class="value" fill="#f9fafb">4.99</text>
<rect x="744" y="392" width="92" height="22" rx="4" fill="rgb(113,164,90)" />
<text x="774" y="407" class="value" fill="#f9fafb">4.79</text>
<rect x="844" y="392" width="92" height="22" rx="4" fill="rgb(133,140,80)" />
<text x="874" y="407" class="value" fill="#111827">4.55</text>
<text x="24" y="444" class="label">google/gemini-3.1-flash-lite-preview</text>
<rect x="344" y="426" width="92" height="22" rx="4" fill="rgb(96,185,99)" />
<text x="374" y="441" class="value" fill="#f9fafb">5.00</text>
<rect x="444" y="426" width="92" height="22" rx="4" fill="rgb(166,101,64)" />
<text x="474" y="441" class="value" fill="#111827">4.15</text>
<rect x="544" y="426" width="92" height="22" rx="4" fill="rgb(159,109,67)" />
<text x="574" y="441" class="value" fill="#111827">4.23</text>
<rect x="644" y="426" width="92" height="22" rx="4" fill="rgb(96,185,99)" />
<text x="674" y="441" class="value" fill="#f9fafb">5.00</text>
<rect x="744" y="426" width="92" height="22" rx="4" fill="rgb(142,129,75)" />
<text x="774" y="441" class="value" fill="#111827">4.43</text>
<rect x="844" y="426" width="92" height="22" rx="4" fill="rgb(142,129,75)" />
<text x="874" y="441" class="value" fill="#111827">4.43</text>
<text x="24" y="478" class="label">qwen/qwen3.5-35b-a3b</text>
<rect x="344" y="460" width="92" height="22" rx="4" fill="rgb(115,161,89)" />
<text x="374" y="475" class="value" fill="#f9fafb">4.76</text>
<rect x="444" y="460" width="92" height="22" rx="4" fill="rgb(162,106,66)" />
<text x="474" y="475" class="value" fill="#111827">4.20</text>
<rect x="544" y="460" width="92" height="22" rx="4" fill="rgb(220,38,38)" />
<text x="574" y="475" class="value" fill="#111827">3.50</text>
<rect x="644" y="460" width="92" height="22" rx="4" fill="rgb(141,131,76)" />
<text x="674" y="475" class="value" fill="#111827">4.45</text>
<rect x="744" y="460" width="92" height="22" rx="4" fill="rgb(150,120,72)" />
<text x="774" y="475" class="value" fill="#111827">4.34</text>
<rect x="844" y="460" width="92" height="22" rx="4" fill="rgb(159,110,67)" />
<text x="874" y="475" class="value" fill="#111827">4.24</text>
<text x="24" y="530" class="source">Source: ZinsserBench (github.com/simonmesmith/zinsserbench)</text>
</svg>