<svg xmlns="http://www.w3.org/2000/svg" width="900" height="560" viewBox="0 0 900 560">
<style>text { font-family: Menlo, Consolas, monospace; fill: #1f2937; } .title { font-size: 24px; font-weight: 700; } .label { font-size: 13px; } .value { font-size: 12px; } .source { font-size: 12px; fill: #4b5563; } .bar { fill: #2f6fed; } .axis { stroke: #d1d5db; stroke-width: 1; }</style>
<text x="24" y="32" class="title">Nonfiction Writing Criteria Average</text>
<text x="348" y="56" class="label">Score</text>
<line x1="348" y1="60" x2="860" y2="60" class="axis" />
<text x="24" y="90" class="label">anthropic/claude-sonnet-4.6</text>
<rect x="348" y="72" width="492.66" height="20" rx="4" class="bar" />
<text x="848.66" y="87" class="value">4.811</text>
<text x="24" y="126" class="label">anthropic/claude-opus-4.6</text>
<rect x="348" y="108" width="490.10" height="20" rx="4" class="bar" />
<text x="846.10" y="123" class="value">4.786</text>
<text x="24" y="162" class="label">openai/gpt-5.3-chat</text>
<rect x="348" y="144" width="490.10" height="20" rx="4" class="bar" />
<text x="846.10" y="159" class="value">4.786</text>
<text x="24" y="198" class="label">moonshotai/kimi-k2.5</text>
<rect x="348" y="180" width="488.74" height="20" rx="4" class="bar" />
<text x="844.74" y="195" class="value">4.773</text>
<text x="24" y="234" class="label">openai/gpt-5.4</text>
<rect x="348" y="216" width="480.71" height="20" rx="4" class="bar" />
<text x="836.71" y="231" class="value">4.694</text>
<text x="24" y="270" class="label">google/gemini-3.1-pro-preview</text>
<rect x="348" y="252" width="479.01" height="20" rx="4" class="bar" />
<text x="835.01" y="267" class="value">4.678</text>
<text x="24" y="306" class="label">z-ai/glm-5</text>
<rect x="348" y="288" width="476.73" height="20" rx="4" class="bar" />
<text x="832.73" y="303" class="value">4.656</text>
<text x="24" y="342" class="label">deepseek/deepseek-v3.2</text>
<rect x="348" y="324" width="474.03" height="20" rx="4" class="bar" />
<text x="830.03" y="339" class="value">4.629</text>
<text x="24" y="378" class="label">minimax/minimax-m2.5</text>
<rect x="348" y="360" width="473.17" height="20" rx="4" class="bar" />
<text x="829.17" y="375" class="value">4.621</text>
<text x="24" y="414" class="label">x-ai/grok-4.1-fast</text>
<rect x="348" y="396" width="470.82" height="20" rx="4" class="bar" />
<text x="826.82" y="411" class="value">4.598</text>
<text x="24" y="450" class="label">google/gemini-3.1-flash-lite-preview</text>
<rect x="348" y="432" width="465.07" height="20" rx="4" class="bar" />
<text x="821.07" y="447" class="value">4.542</text>
<text x="24" y="486" class="label">qwen/qwen3.5-35b-a3b</text>
<rect x="348" y="468" width="434.98" height="20" rx="4" class="bar" />
<text x="790.98" y="483" class="value">4.248</text>
<text x="24" y="540" class="source">Source: ZinsserBench (github.com/simonmesmith/zinsserbench)</text>
</svg>