<svg xmlns="http://www.w3.org/2000/svg" width="960" height="536" viewBox="0 0 960 536">
<style>text { font-family: Menlo, Consolas, monospace; fill: #1f2937; } .title { font-size: 24px; font-weight: 700; } .label { font-size: 13px; } .value { font-size: 12px; } .source { font-size: 12px; fill: #4b5563; } .pos { fill: #059669; } .neg { fill: #dc2626; } .axis { stroke: #d1d5db; stroke-width: 1; }</style>
<text x="24" y="32" class="title">Criteria Average Minus Overall Average</text>
<line x1="348" y1="60" x2="920" y2="60" class="axis" />
<line x1="634.00" y1="60" x2="634.00" y2="496" class="axis" />
<text x="24" y="88" class="label">google/gemini-3.1-pro-preview</text>
<rect x="348.00" y="72" width="286.00" height="18" rx="4" class="neg" />
<text x="290.00" y="86" class="value">-0.256</text>
<text x="24" y="122" class="label">moonshotai/kimi-k2.5</text>
<rect x="407.77" y="106" width="226.23" height="18" rx="4" class="neg" />
<text x="349.77" y="120" class="value">-0.202</text>
<text x="24" y="156" class="label">z-ai/glm-5</text>
<rect x="416.39" y="140" width="217.61" height="18" rx="4" class="neg" />
<text x="358.39" y="154" class="value">-0.194</text>
<text x="24" y="190" class="label">anthropic/claude-sonnet-4.6</text>
<rect x="422.55" y="174" width="211.45" height="18" rx="4" class="neg" />
<text x="364.55" y="188" class="value">-0.189</text>
<text x="24" y="224" class="label">deepseek/deepseek-v3.2</text>
<rect x="428.82" y="208" width="205.18" height="18" rx="4" class="neg" />
<text x="370.82" y="222" class="value">-0.183</text>
<text x="24" y="258" class="label">anthropic/claude-opus-4.6</text>
<rect x="431.84" y="242" width="202.16" height="18" rx="4" class="neg" />
<text x="373.84" y="256" class="value">-0.181</text>
<text x="24" y="292" class="label">google/gemini-3.1-flash-lite-preview</text>
<rect x="438.11" y="276" width="195.89" height="18" rx="4" class="neg" />
<text x="380.11" y="290" class="value">-0.175</text>
<text x="24" y="326" class="label">openai/gpt-5.4</text>
<rect x="459.83" y="310" width="174.17" height="18" rx="4" class="neg" />
<text x="401.83" y="324" class="value">-0.156</text>
<text x="24" y="360" class="label">minimax/minimax-m2.5</text>
<rect x="531.35" y="344" width="102.65" height="18" rx="4" class="neg" />
<text x="473.35" y="358" class="value">-0.092</text>
<text x="24" y="394" class="label">x-ai/grok-4.1-fast</text>
<rect x="575.68" y="378" width="58.32" height="18" rx="4" class="neg" />
<text x="517.68" y="392" class="value">-0.052</text>
<text x="24" y="428" class="label">openai/gpt-5.3-chat</text>
<rect x="581.17" y="412" width="52.83" height="18" rx="4" class="neg" />
<text x="523.17" y="426" class="value">-0.047</text>
<text x="24" y="462" class="label">qwen/qwen3.5-35b-a3b</text>
<rect x="634.00" y="446" width="11.64" height="18" rx="4" class="pos" />
<text x="653.64" y="460" class="value">+0.010</text>
<text x="24" y="516" class="source">Source: ZinsserBench (github.com/simonmesmith/zinsserbench)</text>
</svg>