<svg xmlns="http://www.w3.org/2000/svg" width="960" height="784" viewBox="0 0 960 784">
<style>text { font-family: Menlo, Consolas, monospace; fill: #1f2937; } .title { font-size: 24px; font-weight: 700; } .label { font-size: 13px; } .value { font-size: 12px; } .source { font-size: 12px; fill: #4b5563; } .overall-bar { fill: #9ca3af; } .average-bar { fill: #2f6fed; } .axis { stroke: #d1d5db; stroke-width: 1; }</style>
<text x="24" y="32" class="title">Overall Average vs. Criteria Average</text>
<rect x="24" y="47" width="14" height="14" rx="3" class="overall-bar" />
<text x="46" y="58" class="label">Overall average</text>
<rect x="204" y="47" width="14" height="14" rx="3" class="average-bar" />
<text x="226" y="58" class="label">Criteria average</text>
<line x1="348" y1="68" x2="920" y2="68" class="axis" />
<text x="24" y="100" class="label">anthropic/claude-sonnet-4.6</text>
<rect x="348" y="80" width="572.00" height="14" rx="4" class="overall-bar" />
<text x="928.00" y="91" class="value">5.000</text>
<rect x="348" y="102" width="550.39" height="14" rx="4" class="average-bar" />
<text x="906.39" y="113" class="value">4.811</text>
<text x="24" y="154" class="label">anthropic/claude-opus-4.6</text>
<rect x="348" y="134" width="568.19" height="14" rx="4" class="overall-bar" />
<text x="924.19" y="145" class="value">4.967</text>
<rect x="348" y="156" width="547.53" height="14" rx="4" class="average-bar" />
<text x="903.53" y="167" class="value">4.786</text>
<text x="24" y="208" class="label">openai/gpt-5.3-chat</text>
<rect x="348" y="188" width="552.93" height="14" rx="4" class="overall-bar" />
<text x="908.93" y="199" class="value">4.833</text>
<rect x="348" y="210" width="547.53" height="14" rx="4" class="average-bar" />
<text x="903.53" y="221" class="value">4.786</text>
<text x="24" y="262" class="label">moonshotai/kimi-k2.5</text>
<rect x="348" y="242" width="569.14" height="14" rx="4" class="overall-bar" />
<text x="925.14" y="253" class="value">4.975</text>
<rect x="348" y="264" width="546.02" height="14" rx="4" class="average-bar" />
<text x="902.02" y="275" class="value">4.773</text>
<text x="24" y="316" class="label">openai/gpt-5.4</text>
<rect x="348" y="296" width="554.84" height="14" rx="4" class="overall-bar" />
<text x="910.84" y="307" class="value">4.850</text>
<rect x="348" y="318" width="537.04" height="14" rx="4" class="average-bar" />
<text x="893.04" y="329" class="value">4.694</text>
<text x="24" y="370" class="label">google/gemini-3.1-pro-preview</text>
<rect x="348" y="350" width="564.37" height="14" rx="4" class="overall-bar" />
<text x="920.37" y="361" class="value">4.933</text>
<rect x="348" y="372" width="535.14" height="14" rx="4" class="average-bar" />
<text x="891.14" y="383" class="value">4.678</text>
<text x="24" y="424" class="label">z-ai/glm-5</text>
<rect x="348" y="404" width="554.84" height="14" rx="4" class="overall-bar" />
<text x="910.84" y="415" class="value">4.850</text>
<rect x="348" y="426" width="532.60" height="14" rx="4" class="average-bar" />
<text x="888.60" y="437" class="value">4.656</text>
<text x="24" y="478" class="label">deepseek/deepseek-v3.2</text>
<rect x="348" y="458" width="550.55" height="14" rx="4" class="overall-bar" />
<text x="906.55" y="469" class="value">4.812</text>
<rect x="348" y="480" width="529.58" height="14" rx="4" class="average-bar" />
<text x="885.58" y="491" class="value">4.629</text>
<text x="24" y="532" class="label">minimax/minimax-m2.5</text>
<rect x="348" y="512" width="539.11" height="14" rx="4" class="overall-bar" />
<text x="895.11" y="523" class="value">4.713</text>
<rect x="348" y="534" width="528.62" height="14" rx="4" class="average-bar" />
<text x="884.62" y="545" class="value">4.621</text>
<text x="24" y="586" class="label">x-ai/grok-4.1-fast</text>
<rect x="348" y="566" width="531.96" height="14" rx="4" class="overall-bar" />
<text x="887.96" y="577" class="value">4.650</text>
<rect x="348" y="588" width="526.00" height="14" rx="4" class="average-bar" />
<text x="882.00" y="599" class="value">4.598</text>
<text x="24" y="640" class="label">google/gemini-3.1-flash-lite-preview</text>
<rect x="348" y="620" width="539.59" height="14" rx="4" class="overall-bar" />
<text x="895.59" y="631" class="value">4.717</text>
<rect x="348" y="642" width="519.57" height="14" rx="4" class="average-bar" />
<text x="875.57" y="653" class="value">4.542</text>
<text x="24" y="694" class="label">qwen/qwen3.5-35b-a3b</text>
<rect x="348" y="674" width="484.77" height="14" rx="4" class="overall-bar" />
<text x="840.77" y="685" class="value">4.237</text>
<rect x="348" y="696" width="485.96" height="14" rx="4" class="average-bar" />
<text x="841.96" y="707" class="value">4.248</text>
<text x="24" y="764" class="source">Source: ZinsserBench (github.com/simonmesmith/zinsserbench)</text>
</svg>