<svg xmlns="http://www.w3.org/2000/svg" width="900" height="560" viewBox="0 0 900 560">
<style>text { font-family: Menlo, Consolas, monospace; fill: #1f2937; } .title { font-size: 24px; font-weight: 700; } .label { font-size: 13px; } .value { font-size: 12px; } .source { font-size: 12px; fill: #4b5563; } .bar { fill: #2f6fed; } .axis { stroke: #d1d5db; stroke-width: 1; }</style>
<text x="24" y="32" class="title">Nonfiction Writing Overall Average</text>
<text x="348" y="56" class="label">Score</text>
<line x1="348" y1="60" x2="860" y2="60" class="axis" />
<text x="24" y="90" class="label">anthropic/claude-sonnet-4.6</text>
<rect x="348" y="72" width="512.00" height="20" rx="4" class="bar" />
<text x="868.00" y="87" class="value">5.000</text>
<text x="24" y="126" class="label">moonshotai/kimi-k2.5</text>
<rect x="348" y="108" width="509.44" height="20" rx="4" class="bar" />
<text x="865.44" y="123" class="value">4.975</text>
<text x="24" y="162" class="label">anthropic/claude-opus-4.6</text>
<rect x="348" y="144" width="508.59" height="20" rx="4" class="bar" />
<text x="864.59" y="159" class="value">4.967</text>
<text x="24" y="198" class="label">google/gemini-3.1-pro-preview</text>
<rect x="348" y="180" width="505.17" height="20" rx="4" class="bar" />
<text x="861.17" y="195" class="value">4.933</text>
<text x="24" y="234" class="label">openai/gpt-5.4</text>
<rect x="348" y="216" width="496.64" height="20" rx="4" class="bar" />
<text x="852.64" y="231" class="value">4.850</text>
<text x="24" y="270" class="label">z-ai/glm-5</text>
<rect x="348" y="252" width="496.64" height="20" rx="4" class="bar" />
<text x="852.64" y="267" class="value">4.850</text>
<text x="24" y="306" class="label">openai/gpt-5.3-chat</text>
<rect x="348" y="288" width="494.93" height="20" rx="4" class="bar" />
<text x="850.93" y="303" class="value">4.833</text>
<text x="24" y="342" class="label">deepseek/deepseek-v3.2</text>
<rect x="348" y="324" width="492.80" height="20" rx="4" class="bar" />
<text x="848.80" y="339" class="value">4.812</text>
<text x="24" y="378" class="label">google/gemini-3.1-flash-lite-preview</text>
<rect x="348" y="360" width="482.99" height="20" rx="4" class="bar" />
<text x="838.99" y="375" class="value">4.717</text>
<text x="24" y="414" class="label">minimax/minimax-m2.5</text>
<rect x="348" y="396" width="482.56" height="20" rx="4" class="bar" />
<text x="838.56" y="411" class="value">4.713</text>
<text x="24" y="450" class="label">x-ai/grok-4.1-fast</text>
<rect x="348" y="432" width="476.16" height="20" rx="4" class="bar" />
<text x="832.16" y="447" class="value">4.650</text>
<text x="24" y="486" class="label">qwen/qwen3.5-35b-a3b</text>
<rect x="348" y="468" width="433.92" height="20" rx="4" class="bar" />
<text x="789.92" y="483" class="value">4.237</text>
<text x="24" y="540" class="source">Source: ZinsserBench (github.com/simonmesmith/zinsserbench)</text>
</svg>